<?xml version="1.0" encoding="utf-8"?>
<!-- Generator: Adobe Illustrator 16.0.0, SVG Export Plug-In . SVG Version: 6.00 Build 0)  -->
<!DOCTYPE svg PUBLIC "-//W3C//DTD SVG 1.1//EN" "http://www.w3.org/Graphics/SVG/1.1/DTD/svg11.dtd">
<svg version="1.1" id="Layer_1" xmlns="http://www.w3.org/2000/svg" xmlns:xlink="http://www.w3.org/1999/xlink" x="0px" y="0px"
	 width="612px" height="792px" viewBox="0 0 612 792" enable-background="new 0 0 612 792" xml:space="preserve">
<ellipse transform="matrix(-0.903 -0.4296 0.4296 -0.903 387.4795 897.769)" fill="#5EBA44" cx="295.078" cy="405.146" rx="5.092" ry="7.35"/>
<ellipse transform="matrix(0.903 -0.4296 0.4296 0.903 -143.4719 174.7462)" fill="#5EBA44" cx="315.306" cy="405.146" rx="5.092" ry="7.349"/>
<path fill="#5AAA3F" d="M298.438,398.623c0.416,1.691,0.186,3.808-0.78,5.838c-1.744,3.664-5.216,5.656-7.755,4.448
	c-0.07-0.033-0.133-0.077-0.201-0.114c0.335,1.362,1.088,2.449,2.221,2.988c2.539,1.207,6.011-0.784,7.755-4.449
	C301.374,403.77,300.805,399.943,298.438,398.623z"/>
<path fill="#5AAA3F" d="M311.946,398.623c-0.416,1.691-0.187,3.808,0.78,5.838c1.744,3.664,5.216,5.656,7.755,4.448
	c0.07-0.033,0.134-0.077,0.2-0.114c-0.334,1.362-1.088,2.449-2.221,2.988c-2.539,1.207-6.011-0.784-7.755-4.449
	C309.011,403.77,309.579,399.943,311.946,398.623z"/>
<g>
	<path fill="#004B23" d="M300.257,412.084c1.629-1.229,3.237-1.845,3.592-1.375c0.354,0.469-1.408,1.812-3.037,3.041
		c-1.629,1.229-3.625,2.688-3.863,2.409C296.568,415.713,298.628,413.313,300.257,412.084z"/>
	<path fill="#004B23" d="M299.059,407.622c2.034-0.159,3.716,0.119,3.755,0.62c0.039,0.502-2.145,1.177-2.846,0.932
		c-1.194-0.418-5.482,0.145-5.521-0.356S297.025,407.781,299.059,407.622z"/>
	<path fill="#004B23" d="M299.88,402.954c1.891,0.767,3.255,1.807,3.047,2.321c-0.209,0.514-3.074,1.448-3.803-0.459
		c-0.375-0.982-4.254-2.805-4.045-3.32C295.288,400.982,297.99,402.188,299.88,402.954z"/>
</g>
<g>
	<path fill="#004B23" d="M310.469,412.084c-1.629-1.229-3.238-1.845-3.592-1.375c-0.354,0.469,1.409,1.812,3.038,3.041
		c1.629,1.229,3.625,2.688,3.863,2.409C314.158,415.713,312.098,413.313,310.469,412.084z"/>
	<path fill="#004B23" d="M311.666,407.622c-2.033-0.159-3.715,0.119-3.754,0.62c-0.039,0.502,2.145,1.177,2.846,0.932
		c1.193-0.418,5.482,0.145,5.521-0.356S313.701,407.781,311.666,407.622z"/>
	<path fill="#004B23" d="M310.846,402.954c-1.891,0.767-3.256,1.807-3.047,2.321c0.209,0.514,3.074,1.448,3.803-0.459
		c0.375-0.982,4.254-2.805,4.045-3.32C315.438,400.982,312.736,402.188,310.846,402.954z"/>
</g>
<path fill="#30963A" d="M305.168,416.519c6.679,0,6.209-12.965,6.209-12.965s-1.783-7.484-6.186-7.484s-6.184,7.484-6.184,7.484
	s-0.47,12.965,6.208,12.965"/>
<path fill="#DEB343" stroke="#30963A" stroke-width="0.65" stroke-linecap="round" stroke-linejoin="round" stroke-miterlimit="10" d="
	M305.191,410.184c-3.376,0-4.737-1.074-4.737-1.074c-0.132-0.763-0.214-1.512-0.266-2.193c0,0,1.815,1.073,5.003,1.073
	c3.188,0,5.003-1.073,5.003-1.073c-0.051,0.682-0.134,1.431-0.265,2.193C309.93,409.109,308.568,410.184,305.191,410.184z"/>
<path fill="#DEB343" stroke="#30963A" stroke-width="0.65" stroke-linecap="round" stroke-linejoin="round" stroke-miterlimit="10" d="
	M305.191,407.168c-3.714,0-5.211-1.182-5.211-1.182c-0.145-0.838,0.087-1.573,0.031-2.323c0,0,1.671,1.181,5.178,1.181
	c3.507,0,5.178-1.181,5.178-1.181c-0.057,0.75,0.181,1.485,0.035,2.323C310.402,405.986,308.906,407.168,305.191,407.168z"/>
<g>
	<path fill="#DEB343" stroke="#30963A" stroke-width="0.65" stroke-miterlimit="10" d="M305.192,410.979
		c-3.05,0-4.612-1.219-4.612-1.219c0.159,0.754,0.37,1.502,0.65,2.193c0,0,1.108,0.957,3.961,0.957c2.854,0,3.96-0.957,3.96-0.957
		c0.281-0.691,0.492-1.439,0.651-2.193C309.804,409.76,308.243,410.979,305.192,410.979z"/>
	<path fill="#DEB343" stroke="#30963A" stroke-width="0.65" stroke-miterlimit="10" d="M305.168,413.596
		c-2.023,0-3.646-0.992-3.646-0.992c0.752,1.492,1.901,2.577,3.646,2.596c0.008,0,0.016,0.002,0.024,0.002
		c1.76-0.008,2.915-1.099,3.67-2.598C308.862,412.604,307.19,413.596,305.168,413.596z"/>
	<path fill="#DEB343" stroke="#30963A" stroke-width="0.65" stroke-miterlimit="10" d="M305.168,411.953"/>
	<path fill="#DEB343" stroke="#30963A" stroke-width="0.65" stroke-miterlimit="10" d="M305.168,411.953"/>
	<path fill="#DEB343" stroke="#30963A" stroke-width="0.65" stroke-miterlimit="10" d="M305.168,415.199"/>
</g>
<g opacity="0.1">
	<path fill="#24420E" d="M305.168,416.519h0.048c-0.008,0-0.016-0.001-0.024-0.001S305.176,416.519,305.168,416.519z"/>
	<path fill="#24420E" d="M301.007,403.554c0,0,1.514-6.321,5.184-7.333c-0.319-0.088-0.648-0.15-1-0.15
		c-4.402,0-6.184,7.484-6.184,7.484s-0.468,12.932,6.185,12.964c0.354-0.002,0.685-0.045,1-0.117
		C300.591,415.14,301.007,403.554,301.007,403.554z"/>
</g>
<g opacity="0.2">
	<path fill="#F5E4B5" d="M305.216,416.519h-0.048c0.008,0,0.016-0.001,0.024-0.001S305.208,416.519,305.216,416.519z"/>
	<path fill="#F5E4B5" d="M309.377,403.554c0,0-1.514-6.321-5.184-7.333c0.319-0.088,0.648-0.15,1-0.15
		c4.403,0,6.184,7.484,6.184,7.484s0.469,12.932-6.185,12.964c-0.354-0.002-0.685-0.045-1-0.117
		C309.793,415.14,309.377,403.554,309.377,403.554z"/>
</g>
<path fill="none" stroke="#004B23" stroke-linecap="round" stroke-miterlimit="10" d="M301.667,385.167
	c-0.813-2.938-1.754-4.2-2.754-4.753c-1.667-0.922-3.497,0.126-5.163-1.332"/>
<path fill="none" stroke="#004B23" stroke-linecap="round" stroke-miterlimit="10" d="M308.75,385.167
	c2.168-7.834,5.252-4.751,7.918-7.084"/>
<path fill="#DEB343" d="M315.008,390.564c0,5.422-4.396,9.817-9.817,9.817c-5.422,0-9.818-4.395-9.818-9.817
	s4.396-8.817,9.818-8.817C310.611,381.747,315.008,385.142,315.008,390.564z"/>
<path fill="#D1A842" d="M297.373,390.564c0-5.084,3.866-8.386,8.818-8.778c-0.329-0.026-0.663-0.04-1-0.04
	c-5.422,0-9.818,3.396-9.818,8.817s4.396,9.817,9.818,9.817c0.337,0,0.671-0.017,1-0.05
	C301.239,399.83,297.373,395.648,297.373,390.564z"/>
<path fill="#E2BD6A" d="M313.008,390.564c0-5.084-3.865-8.386-8.818-8.778c0.329-0.026,0.663-0.04,1-0.04
	c5.421,0,9.818,3.396,9.818,8.817s-4.396,9.817-9.818,9.817c-0.337,0-0.671-0.017-1-0.05
	C309.143,399.83,313.008,395.648,313.008,390.564z"/>
<path fill="#004B23" d="M305.185,382.663c2.333,0,4.529,0.5,6.477,1.05c-1.729-1.295-3.992-2.216-6.477-2.216
	c-2.486,0-4.749,0.921-6.479,2.216C300.656,383.163,302.852,382.663,305.185,382.663z"/>
<path fill="none" stroke="#754C29" stroke-width="1.5" stroke-miterlimit="10" d="M302.344,389.683c0,2.106-1.707,3.814-3.812,3.814
	s-3.812-1.708-3.812-3.814c0-2.104,1.708-3.81,3.812-3.81S302.344,387.58,302.344,389.683z"/>
<path fill="none" stroke="#754C29" stroke-width="1.5" stroke-miterlimit="10" d="M315.668,389.683c0,2.106-1.708,3.814-3.812,3.814
	c-2.105,0-3.812-1.708-3.812-3.814c0-2.104,1.707-3.81,3.812-3.81C313.96,385.873,315.668,387.58,315.668,389.683z"/>
<circle fill="#5A3B00" stroke="#FFFFFF" stroke-width="1.5" stroke-miterlimit="10" cx="298.531" cy="389.685" r="3.15"/>
<circle fill="#5A3B00" stroke="#FFFFFF" stroke-width="1.5" stroke-miterlimit="10" cx="311.852" cy="389.685" r="3.15"/>
<path fill="none" stroke="#5A3B00" stroke-width="0.5" stroke-linecap="round" stroke-miterlimit="10" d="M307.363,395.718
	c-0.536,0.523-1.341,0.8-2.154,0.8c-1.25,0-2.264-0.825-2.676-1.531"/>
<ellipse fill="#5A3B00" cx="305.118" cy="393.127" rx="0.894" ry="0.402"/>
<circle fill="#FFFFFF" cx="298.531" cy="390.442" r="0.757"/>
<circle fill="#FFFFFF" cx="311.924" cy="390.36" r="0.756"/>
<circle fill="#5C8934" stroke="#004B23" stroke-width="0.75" stroke-linecap="round" stroke-miterlimit="10" cx="316.668" cy="378.083" r="0.68"/>
<circle fill="#5C8934" stroke="#004B23" stroke-width="0.75" stroke-linecap="round" stroke-miterlimit="10" cx="293.75" cy="379.083" r="0.68"/>
</svg>
